<svg xmlns="http://www.w3.org/2000/svg" aria-label="Cocoa Butter" role="img" height="38" viewBox="0 0 250 250" class="">
      <title>Cocoa Butter</title>
      <desc>Cocoa Butter Icon</desc>

      
          
          


  
      
  
      <path class="fill" d="M98.7 130.44c-1.67 0-3.34 0-5-.11a153.71 153.71 0 0 1-16.89-2.15l-18-3c-4.92-.81-10.77-2.39-12.5-7.47a1.5 1.5 0 1 1 2.84-1c1.21 3.58 6.06 4.81 10.14 5.48l18 3a150.19 150.19 0 0 0 16.56 2.11c4.07.21 8.25.09 12.29 0l39-1.16a1.48 1.48 0 0 1 1.54 1.45 1.5 1.5 0 0 1-1.46 1.54l-39 1.17c-2.46.07-4.99.14-7.52.14z"></path>
      <path class="fill" d="M128.28 155.19a173.05 173.05 0 0 1-18.77-1.35c-8-.87-17-1.84-24.74-5.74a71.28 71.28 0 0 1-6.74-4c-1.45-.94-3-1.91-4.47-2.77-1.81-1-3.73-2-5.6-2.91-2.34-1.15-4.77-2.34-7.06-3.76a42.93 42.93 0 0 1-13.69-13.56 8.78 8.78 0 0 1-1.73-5.1c.14-2.93 2.46-5 4.46-6.5a72.1 72.1 0 0 1 31-13.15A140.7 140.7 0 0 1 100 94.91l41.55-1.29a220.31 220.31 0 0 1 22.69.08 111.13 111.13 0 0 1 37.4 9.35c1.52.68 3 1.39 4.55 2.11 6.33 3 12.87 6.06 19.72 6.27.7 0 4.24.24 5.7 2.28a3.12 3.12 0 0 1 .42 2.77 1.51 1.51 0 0 1-1.36 1 67.42 67.42 0 0 0-19.17 10.7c-.8.63-1.59 1.28-2.37 1.94a48.08 48.08 0 0 1-7.7 5.58 30.12 30.12 0 0 0-3.75 2.53 21.16 21.16 0 0 1-6.88 3.88q-4.94 1.38-9.92 2.83c-15.9 4.59-32.34 9.34-48.89 10.12-1.23.11-2.47.13-3.71.13zM154 96.37c-4.14 0-8.28.12-12.34.25l-41.56 1.29a138.4 138.4 0 0 0-18.72 1.42 69 69 0 0 0-29.65 12.6c-1.47 1.09-3.17 2.56-3.25 4.23a6.3 6.3 0 0 0 1.26 3.33 40 40 0 0 0 12.74 12.61c2.17 1.34 4.53 2.5 6.81 3.62 1.9.94 3.87 1.91 5.76 3 1.58.91 3.12 1.9 4.61 2.86a69 69 0 0 0 6.45 3.85c7.31 3.65 15.65 4.56 23.72 5.44 7.22.78 14.7 1.6 22 1.25 16.2-.76 32.46-5.46 48.2-10 3.33-1 6.65-1.92 9.95-2.84a18.5 18.5 0 0 0 5.89-3.4 34.26 34.26 0 0 1 4.11-2.76 45.3 45.3 0 0 0 7.21-5.25c.8-.67 1.6-1.33 2.42-2a70 70 0 0 1 11.69-7.55c-4.79.52-9.56 1.18-14.24 1.82-10.3 1.42-20.74 3-30.83 4.49s-20.55 3.06-30.85 4.48a1.5 1.5 0 1 1-.41-3c10.29-1.42 20.72-3 30.82-4.48s20.54-3.07 30.84-4.49c6.91-1 14-1.93 21.1-2.45a7.52 7.52 0 0 0-1.93-.3c-7.47-.23-14.3-3.45-20.91-6.56-1.5-.7-3-1.41-4.49-2.08a108.19 108.19 0 0 0-36.4-9.1c-3.29-.2-6.65-.28-10-.28z"></path>
      <path class="fill" d="M93 128.87a1 1 0 0 1-1-.78l-1.11-4.88c-.41-1.83-.93-3.69-2.3-4.46-1.54-.86-3.66 0-5 1.39a18 18 0 0 0-2.27 3.18c-.48.78-1 1.59-1.54 2.35a1 1 0 0 1-.8.4 1 1 0 0 1-.8-.41c-1.08-1.43-.32-3.34.84-4.5.25-.24.52-.48.79-.72a4.71 4.71 0 0 0 1.37-1.57 2.73 2.73 0 0 0-1.33-3 9.59 9.59 0 0 0-4.26-1.12h-.1a11.65 11.65 0 0 1-1 .93l-5.86 5.38c-1.81 1.67-3.82 3.15-6.15 2.71-2.68-.5-4.09-3.38-3.87-5.76a13.42 13.42 0 0 1 2.14-5c-2.85 2-5.43 5.54-6 8.28a1 1 0 1 1-2-.4c.9-4.43 6-10.41 10.67-11.21a126 126 0 0 1 17.77-7.08 6.82 6.82 0 0 1 3.87-.36 3.48 3.48 0 0 1 2.31 1.76 2.59 2.59 0 0 1 .14 2.12 3.69 3.69 0 0 1-1.27 1.54 27.56 27.56 0 0 1-4 2.44 19.07 19.07 0 0 0-4.56 2.9 8.54 8.54 0 0 1 3.32 1.2 5.21 5.21 0 0 1 2.34 3.59c1.78-1.28 4.19-1.94 6.26-.78s2.78 3.59 3.27 5.76l1.13 4.88a1 1 0 0 1-.76 1.2zm-28.59-17.31c-1.37 1.53-3.52 5-3.67 6.63s.75 3.32 2.24 3.6 3-.9 4.44-2.21l5.86-5.38a4.56 4.56 0 0 0 1.72-2.39 1.64 1.64 0 0 0-.59-1.42 4.34 4.34 0 0 0-3.43-1 15.64 15.64 0 0 0-3.13 1 16.21 16.21 0 0 1-3.44 1.17zm8.84-4a5.74 5.74 0 0 1 2.53 1.35 3.82 3.82 0 0 1 1.16 2 24 24 0 0 1 4.32-2.68A24.55 24.55 0 0 0 85 106a2 2 0 0 0 .63-.67.61.61 0 0 0 0-.5 1.49 1.49 0 0 0-.87-.71 5.23 5.23 0 0 0-2.74.34c-3.02.96-5.9 1.99-8.77 3.13z"></path>
      <path class="fill" d="M102.35 112.38a1 1 0 0 1-1-.95 7.74 7.74 0 0 0-5.44-6.59 12.64 12.64 0 0 0-9.25.91 1 1 0 1 1-.85-1.81 14.52 14.52 0 0 1 10.73-1 9.75 9.75 0 0 1 6.81 8.38 1 1 0 0 1-1 1z"></path>
      <path class="fill" d="M94.17 126.13a8.51 8.51 0 0 1-2.1-.26 1 1 0 0 1 .5-1.94 9.26 9.26 0 0 0 5.93-.83 19.46 19.46 0 0 0 8.11-6.59 6.69 6.69 0 0 0 1.29-2.71 2.46 2.46 0 0 0-.7-2.23c-.77-.6-2-.52-3.89.23a39.83 39.83 0 0 0-11.8 7.43 1 1 0 0 1-1.34-1.48 41.81 41.81 0 0 1 12.38-7.8c1-.39 3.83-1.56 5.88 0a4.32 4.32 0 0 1 1.44 4.1 8.49 8.49 0 0 1-1.63 3.57 21.41 21.41 0 0 1-8.94 7.26 13 13 0 0 1-5.13 1.25z"></path>
      <path class="fill" d="M121.31 114.15a1 1 0 0 1-.94-.67 21.06 21.06 0 0 0-3.35-6.7 10.53 10.53 0 0 0-7.32-3.63c-2.82-.15-7.14 1.85-9.13 3.74a1 1 0 0 1-1.37-1.45c2.33-2.22 7.15-4.45 10.61-4.28a12.49 12.49 0 0 1 8.74 4.33 22.43 22.43 0 0 1 3.71 7.33 1 1 0 0 1-.62 1.27 1 1 0 0 1-.33.06zM106.18 129.8h-.07a1 1 0 0 1-.93-1.06 22.59 22.59 0 0 0-.16-3.17c-.19-2.1-.39-4.27 0-5.71.72-2.35 2.68-4.75 5.45-4.82 3.1-.09 5.2 2.76 6.66 5.22.44.75 1.22 2.17 2 3.58s1.53 2.8 2 3.53a1 1 0 0 1-1.72 1c-.44-.75-1.22-2.16-2-3.58s-1.53-2.8-2-3.53c-1.17-2-2.78-4.24-4.82-4.24h-.07c-1.77 0-3.1 1.79-3.59 3.4a17 17 0 0 0 0 4.95 25 25 0 0 1 .17 3.49 1 1 0 0 1-.92.94z"></path>
      <path class="fill" d="M130.42 126.71a1 1 0 0 1-1-1c-.07-1.86-.22-3.74-.43-5.59s-.58-3.8-1.83-4.86a5.5 5.5 0 0 0-3.35-1 10.59 10.59 0 0 0-8.21 3.67 1 1 0 0 1-1.52-1.3 12.59 12.59 0 0 1 9.77-4.37 7.17 7.17 0 0 1 4.61 1.53c1.77 1.51 2.26 3.85 2.52 6.16.22 1.89.36 3.82.44 5.73a1 1 0 0 1-1 1zM116.39 104.19a1 1 0 0 1-.72-.31 1 1 0 0 1 0-1.42c3.13-3 10.39-2.38 13.76-.49a1 1 0 0 1-1 1.74c-3-1.69-9.21-1.91-11.39.2a1 1 0 0 1-.65.28z"></path>
      <path class="fill" d="M139.51 115.29a1 1 0 0 1-.7-.28 15.25 15.25 0 0 1-3.28-5.92 18.82 18.82 0 0 0-2-4.22 3.8 3.8 0 0 0-1.65-1.48c-1.61-.63-3.52.74-4.7 2.39-.35.47-.67 1-1 1.48a11.86 11.86 0 0 1-3.7 4.15 1 1 0 0 1-1.37-.35 1 1 0 0 1 .35-1.37 10.19 10.19 0 0 0 3-3.51c.34-.53.69-1.07 1-1.58 1.52-2.09 4.28-4.16 7.06-3.07a5.59 5.59 0 0 1 2.56 2.2 20.13 20.13 0 0 1 2.21 4.67 13.55 13.55 0 0 0 2.8 5.18 1 1 0 0 1-.7 1.71z"></path>
      <path class="fill" d="M144.44 105.78a1 1 0 0 1-.94-.67 8.31 8.31 0 0 0-4.68-5.28c-2-.69-4.81 0-5.72 2.07a1 1 0 0 1-1.83-.8c1.36-3.14 5.35-4.16 8.21-3.15a10.17 10.17 0 0 1 5.91 6.5 1 1 0 0 1-.62 1.27 1 1 0 0 1-.33.06z"></path>
      <path class="fill" d="M150 127.4a1 1 0 0 1-.4-.08 1 1 0 0 1-.52-1.31 32.33 32.33 0 0 1 2.43-4.13 35.09 35.09 0 0 0 1.95-3.21c.77-1.58-.08-3.64-1.13-5.63s-2.33-4.42-4.27-5.85c-2.46-1.81-7.73-.71-11.84.92a1 1 0 0 1-.74-1.86c2.24-.89 9.85-3.56 13.77-.67 2.31 1.7 3.66 4.27 4.85 6.53 1.29 2.46 2.32 5 1.16 7.43a38.11 38.11 0 0 1-2.07 3.43 30.61 30.61 0 0 0-2.27 3.83 1 1 0 0 1-.92.6z"></path>
      <path class="fill" d="M130.77 126.08a1 1 0 0 1-.67-.26 1 1 0 0 1-.07-1.41l7-7.77a14.45 14.45 0 0 1 2.83-2.59 10.8 10.8 0 0 1 4.2-1.47c2.32-.37 6.69-.6 9.84 2.2a1 1 0 1 1-1.32 1.5c-1.86-1.64-4.85-2.27-8.2-1.72a8.88 8.88 0 0 0-3.44 1.17 12.62 12.62 0 0 0-2.43 2.26l-7 7.76a1 1 0 0 1-.74.33zM158.47 103.84a1 1 0 0 1-.77-.36 11.47 11.47 0 0 0-14.31-2.36 1 1 0 1 1-1-1.71 13.56 13.56 0 0 1 16.9 2.79 1 1 0 0 1-.13 1.41 1 1 0 0 1-.69.23z"></path>
      <path class="fill" d="M165.66 117.15h-.17a1 1 0 0 1-.82-1.16l1.06-6.29a10 10 0 0 0 .21-3.11 2.79 2.79 0 0 0-1.25-2.06c-1.58-.8-3.62 1-4.21 1.58a21.19 21.19 0 0 0-5.22 8.25 1 1 0 1 1-1.89-.65 23.25 23.25 0 0 1 5.71-9c2.25-2.19 4.62-2.89 6.51-1.93a4.69 4.69 0 0 1 2.33 3.54 11.87 11.87 0 0 1-.21 3.75l-1.07 6.29a1 1 0 0 1-.98.79z"></path>
      <path class="fill" d="M171 122.82a1 1 0 0 1-.86-.48 11.77 11.77 0 0 0-14.69-4.34 1 1 0 0 1-1.34-.47 1 1 0 0 1 .47-1.33 13.84 13.84 0 0 1 17.27 5.13 1 1 0 0 1-.33 1.38 1.1 1.1 0 0 1-.52.11zM172.73 109.5a1 1 0 0 1-.91-.57 18.38 18.38 0 0 0-6.13-7.24 10.77 10.77 0 0 0-4.45-2 5.74 5.74 0 0 0-4.33.93 1 1 0 0 1-1.21-1.6 7.72 7.72 0 0 1 5.86-1.3 12.72 12.72 0 0 1 5.28 2.3 20.53 20.53 0 0 1 6.79 8 1 1 0 0 1-.48 1.33.9.9 0 0 1-.42.15z"></path>
      <path class="fill" d="M191.23 121.9a1 1 0 0 1-.76-.35c-3.62-4.25-10.35-8.78-15.32-10.32-3.56-1.1-6.4-1-8.42.26a1 1 0 0 1-1.07-1.7c2.54-1.59 5.94-1.75 10.08-.47 5.37 1.66 12.36 6.36 16.25 10.93a1 1 0 0 1-.76 1.65zM182.58 107.71a1 1 0 0 1-.77-.37 15.35 15.35 0 0 0-5.26-4.53 6 6 0 0 0-6.06.35 1 1 0 0 1-1.4-.17 1 1 0 0 1 .17-1.41 8 8 0 0 1 8.11-.59 17.16 17.16 0 0 1 6 5.09 1 1 0 0 1-.78 1.63z"></path>
      <path class="fill" d="M200.31 120.22a1 1 0 0 1-.93-.63 32 32 0 0 0-3.63-5.82c-1-1.39-1.94-2.7-2.58-3.83-.73-1.28-1.61-2.69-2.93-3.21-1.56-.6-3.43.14-5.05.94a51.3 51.3 0 0 0-6.08 3.55 1 1 0 0 1-1.13-1.65 51.31 51.31 0 0 1 6.32-3.69c1.9-.94 4.37-1.91 6.67-1 1.84.72 3 2.39 3.94 4.09.58 1 1.5 2.3 2.46 3.64a33.17 33.17 0 0 1 3.88 6.26 1 1 0 0 1-.57 1.3 1.19 1.19 0 0 1-.37.05z"></path>
      <path class="fill" d="M205.17 118.63a1 1 0 0 1-1-.74 13 13 0 0 0-2.18-5.07c-.87-1-4.26-1-5.82-.22a1 1 0 1 1-.9-1.78c2.15-1.09 6.56-1.26 8.24.7a14.54 14.54 0 0 1 2.59 5.85 1 1 0 0 1-.71 1.23 1.09 1.09 0 0 1-.22.03zM120.64 145.65a106 106 0 0 1-18.53-2c-7.93-1.43-15.92-3.15-23.74-5.13-8.41-2.12-18-4.92-24.94-11.35a1 1 0 0 1 1.36-1.47c6.62 6.11 15.89 8.82 24.07 10.88 7.77 2 15.71 3.68 23.61 5.1a99.25 99.25 0 0 0 19.36 2 84.67 84.67 0 0 0 11.16-1.1c2.49-.39 5.5-.8 8.68-1.24 11.55-1.58 25.93-3.55 34.11-6.71a1 1 0 0 1 .72 1.87c-8.4 3.24-22.91 5.22-34.56 6.82-3.17.44-6.17.85-8.64 1.23a85.31 85.31 0 0 1-11.43 1.13z"></path>
      <path class="fill" d="M176.14 136.53a1 1 0 0 1-.29-2 240.31 240.31 0 0 0 23.33-8.65 200.27 200.27 0 0 1 27.16-9.6 1 1 0 0 1 .52 1.93 199.45 199.45 0 0 0-26.86 9.56 239.54 239.54 0 0 1-23.52 8.71 1 1 0 0 1-.34.05z"></path>
      <path class="fill" d="M128 138.34a91.55 91.55 0 0 1-13.26-1c-3.58-.51-8.28-.92-12.83-1.31-4.85-.42-9.87-.85-13.7-1.43s-7.49-1.06-11.06-1.52c-6.88-.9-13.38-1.75-20.49-3.21A1 1 0 1 1 57 128c7 1.44 13.51 2.28 20.35 3.17 3.58.47 7.28 1 11.1 1.53s8.75 1 13.57 1.42c4.58.39 9.31.8 12.94 1.33 17.21 2.48 31.62-.49 46.88-3.64 11-2.27 22.37-4.61 35.21-4.91a1 1 0 0 1 1 1 1 1 0 0 1-1 1c-12.66.29-24 2.62-34.86 4.87-11.31 2.32-22.19 4.57-34.19 4.57zM111.62 153.19a1 1 0 0 1-.14-2c11.7-1.69 25.55-3.71 39.39-5.74s27.7-4 39.4-5.73a1 1 0 0 1 1.13.84 1 1 0 0 1-.85 1.14c-11.7 1.69-25.54 3.71-39.39 5.73s-27.69 4.05-39.39 5.74zM19.31 159.54a1.5 1.5 0 0 1-1.31-2.29 53.48 53.48 0 0 1 20.61-19.13 23.16 23.16 0 0 1 8.8-2.89 28.7 28.7 0 0 1 5.19.22l1.7.17a37 37 0 0 0 10.7-.68 1.5 1.5 0 1 1 .62 2.93 39.77 39.77 0 0 1-11.52.74l-1.78-.17a26.25 26.25 0 0 0-4.64-.22 20.62 20.62 0 0 0-7.68 2.55 50.62 50.62 0 0 0-16.9 14.34c4.91-1.14 10.09-.69 15.14-.25a80.64 80.64 0 0 0 8.75.45 37.88 37.88 0 0 0 19.54-6c3.88-2.52 6-5.25 6.35-8.12a1.5 1.5 0 0 1 3 .34c-.44 3.8-3 7.27-7.7 10.3a40.32 40.32 0 0 1-21.11 6.47 85.68 85.68 0 0 1-9.07-.46c-6.5-.57-12.64-1.1-18 1.54a1.41 1.41 0 0 1-.69.16z"></path>
      <path class="fill" d="M39.82 173.51a1.54 1.54 0 0 1-.85-.26 1.51 1.51 0 0 1-.64-1.42 35.29 35.29 0 0 1 1.94-9.06 12.88 12.88 0 0 1 6.61-7.26 1.5 1.5 0 1 1 1.17 2.76c-2.86 1.21-4.36 4-5 5.62a25.35 25.35 0 0 0-1.4 5.66 44.73 44.73 0 0 1 8.54-2 55.56 55.56 0 0 0 6.46-1.31c9-2.61 16.08-9.85 22.28-16.23 1.52-1.57 2.54-3 2.57-4.65a1.49 1.49 0 0 1 1.5-1.44 1.51 1.51 0 0 1 1.48 1.53c0 2.84-1.67 4.89-3.42 6.69-6.14 6.32-13.79 14.19-23.6 17a57.12 57.12 0 0 1-6.81 1.39c-3.65.59-7.1 1.15-10.14 2.78a1.5 1.5 0 0 1-.69.2z"></path>
      <path class="fill" d="M62.39 181.55a1.36 1.36 0 0 1-.59-.12 1.5 1.5 0 0 1-.91-1.47l.9-14.1a1.5 1.5 0 1 1 3 .18l-.64 10.13a47.72 47.72 0 0 1 5.34-4.26c1-.67 2-1.31 3-1.94a39.11 39.11 0 0 0 6.16-4.48c5.1-4.84 7.09-12.06 8.24-17.81a1.5 1.5 0 0 1 1.77-1.17 1.49 1.49 0 0 1 1.17 1.76c-1.14 5.7-3.34 13.91-9.12 19.4a41.68 41.68 0 0 1-6.61 4.83c-1 .62-1.94 1.23-2.88 1.88a44.92 44.92 0 0 0-7.68 6.69 1.53 1.53 0 0 1-1.15.48zM57.56 107.82a1.41 1.41 0 0 1-.49-.09 1.49 1.49 0 0 1-.92-1.91C58.53 99 65.49 93 68.37 90.72c6.12-4.81 12.2-9.36 19.36-12.09A76.43 76.43 0 0 1 103 75c15-2.41 30.69-4.2 49.21-5.64a1.47 1.47 0 0 1 1.61 1.38 1.49 1.49 0 0 1-1.38 1.61c-18.44 1.43-34 3.22-49 5.62a74.28 74.28 0 0 0-14.64 3.46C82 84 76.15 88.41 70.22 93.07c-2.67 2.11-9.12 7.65-11.24 13.74a1.51 1.51 0 0 1-1.42 1.01z"></path>
      <path class="fill" d="M197.29 104.34a1.47 1.47 0 0 1-.46-.07 1.51 1.51 0 0 1-1-1.89c3.08-9.56 11-22.07 23-25.84.5-.16 1.18-.37 1.33-.62a.35.35 0 0 0 0-.25 1.31 1.31 0 0 0-.63-.74 6 6 0 0 0-3-.17 145.79 145.79 0 0 1-37.38-1.37h-.25c-8.84-1.48-17.19-2.87-26.36-1a1.5 1.5 0 0 1-.59-2.94c9.71-2 18.32-.53 27.44 1h.26a142.43 142.43 0 0 0 36.6 1.34 8.49 8.49 0 0 1 4.53.46 4.24 4.24 0 0 1 2.21 2.59 3.24 3.24 0 0 1-.31 2.66 4.93 4.93 0 0 1-3 1.92c-11 3.43-18.2 15-21.06 23.9a1.5 1.5 0 0 1-1.33 1.02zM70.87 100.07a1 1 0 0 1-.3 0 1 1 0 0 1-.66-1.25c1.52-4.88 4.45-8.29 8-9.34a11.49 11.49 0 0 1 8.27 1 24.49 24.49 0 0 1 4.51 3 6 6 0 0 1 .27-2 5.33 5.33 0 0 1 2.92-3.18 7.78 7.78 0 0 1 6-.13 12.2 12.2 0 0 1 4.22 3.06 3.44 3.44 0 0 1 .88-1.93 3.49 3.49 0 0 1 2.49-1.15 6 6 0 0 1 4.11 1.59c.59.54 1.31 1.33 2.07 2.16a28.12 28.12 0 0 0 3.24 3.2 1 1 0 0 1 .23 1.39 1 1 0 0 1-1.4.23 28.11 28.11 0 0 1-3.54-3.46c-.73-.8-1.43-1.56-2-2a4 4 0 0 0-2.65-1.07 1.51 1.51 0 0 0-1.11.48c-.67.75-.51 2.11.47 4.17a1 1 0 0 1-.39 1.29 1 1 0 0 1-1.32-.27c-1.63-2.22-3.47-4.73-6.1-5.8a5.78 5.78 0 0 0-4.42.09 3.39 3.39 0 0 0-1.87 2 7.64 7.64 0 0 0 .15 3.67 1 1 0 0 1-.47 1.06 1 1 0 0 1-1.16-.11 30.42 30.42 0 0 0-6.09-4.42 9.5 9.5 0 0 0-6.82-.93c-4.18 1.22-6.07 6-6.7 8a1 1 0 0 1-.83.65z"></path>
      <path class="fill" d="M130.65 95.19a1 1 0 0 1-1-.83 17.27 17.27 0 0 0-4-8.4 5.25 5.25 0 0 0-3-2 5.81 5.81 0 0 0-3.6 1.04 23 23 0 0 0-6.41 5.65 1 1 0 1 1-1.58-1.23 25.11 25.11 0 0 1 7-6.14 7.58 7.58 0 0 1 4.85-1.32 7.17 7.17 0 0 1 4.26 2.7 19.35 19.35 0 0 1 4.5 9.37 1 1 0 0 1-.82 1.16z"></path>
      <path class="fill" d="M145.56 95.4a1 1 0 0 1-.66-.25 12.79 12.79 0 0 1-3.1-5c-.17-.4-.35-.81-.53-1.21-.75-1.66-2.05-3.69-4-4a7.11 7.11 0 0 0-3.9 1.09 8.24 8.24 0 0 1-1.85.66 1.92 1.92 0 0 0-1.48 1 1 1 0 1 1-1.63-1.17 3.91 3.91 0 0 1 2.63-1.75 6.22 6.22 0 0 0 1.43-.49A8.58 8.58 0 0 1 137.6 83c2.22.32 4.12 2.09 5.49 5.11.19.42.37.84.55 1.27a11.23 11.23 0 0 0 2.58 4.27 1 1 0 0 1 .09 1.41 1 1 0 0 1-.75.34z"></path>
      <path class="fill" d="M160.51 95.21a1 1 0 0 1-.6-.2 39.64 39.64 0 0 1-3.24-2.77 27.69 27.69 0 0 0-4.4-3.53c-2.5-1.49-6.1-2-8.13 0a1 1 0 0 1-1.38-1.45c2.88-2.75 7.48-2 10.53-.23a30.23 30.23 0 0 1 4.71 3.73 40.62 40.62 0 0 0 3.08 2.65 1 1 0 0 1 .21 1.4 1 1 0 0 1-.78.4zM139.21 85.57a1 1 0 0 1-.61-1.79c1.5-1.18 3.07-2.32 4.66-3.4a16.44 16.44 0 0 1 6.64-3c4-.58 7.7 1.39 11.44 3.64a1 1 0 0 1 .34 1.37 1 1 0 0 1-1.37.34c-3.41-2-6.75-3.85-10.12-3.37a14.7 14.7 0 0 0-5.81 2.7c-1.55 1-3.08 2.16-4.55 3.31a1 1 0 0 1-.62.2z"></path>
      <path class="fill" d="M167.36 95.15a.75.75 0 0 1-.21 0 1 1 0 0 1-.77-1.18c.64-3.13 2.63-5.65 4.55-8.1s3.92-5 4.21-7.92a1 1 0 0 0 0-.44s-.1-.12-.62-.21c-3.14-.54-6.81.86-10.05 3.86a49.37 49.37 0 0 0-4.48 5c-1.1 1.34-2.23 2.73-3.46 4a1 1 0 1 1-1.44-1.39c1.17-1.22 2.28-2.58 3.35-3.88a50.75 50.75 0 0 1 4.68-5.2c3.69-3.42 8-5 11.74-4.36a2.75 2.75 0 0 1 2 1.21 2.7 2.7 0 0 1 .24 1.61c-.35 3.51-2.53 6.28-4.63 9-1.86 2.36-3.62 4.6-4.16 7.26a1 1 0 0 1-.95.74z"></path>
      <path class="fill" d="M178.67 95a1 1 0 0 1-.62-.22 1 1 0 0 1-.16-1.4 3.9 3.9 0 0 0-5.84-5.15 1 1 0 0 1-1.43-1.4 5.9 5.9 0 0 1 8.84 7.79 1 1 0 0 1-.79.38zM185.62 83.69a1 1 0 0 1-.83-.44 11 11 0 0 0-4-4l-.39-.25c-2.12-1-3-1.23-3.4-.48a1 1 0 1 1-1.72-1c1.46-2.46 4.18-1.16 6-.31l.4.19a12.84 12.84 0 0 1 4.78 4.73 1 1 0 0 1-.26 1.39 1 1 0 0 1-.58.17z"></path>
      <path class="fill" d="M191.87 100.88a1.24 1.24 0 0 1-.27 0 1 1 0 0 1-.69-1.24c1.56-5.52 5.56-9.78 9.43-13.9l.4-.44a4.46 4.46 0 0 0 1.26-1.88 2.67 2.67 0 0 0-1.52-2.73 7.42 7.42 0 0 0-4-.52A23.35 23.35 0 0 0 180.19 89a1 1 0 0 1-1.59-1.22 25.5 25.5 0 0 1 17.68-9.63 9.18 9.18 0 0 1 5.14.75 4.63 4.63 0 0 1 2.53 5 6.3 6.3 0 0 1-1.75 2.73l-.41.44c-3.7 3.94-7.53 8-8.95 13.08a1 1 0 0 1-.97.73zM42.13 149.59a1 1 0 0 1 0-2A41.61 41.61 0 0 0 68 138.4a1 1 0 0 1 1.28 1.6 43.66 43.66 0 0 1-27.15 9.63z"></path>
      <path class="fill" d="M52.4 153.72a1 1 0 0 1-.64-1.76 21.91 21.91 0 0 0 4.5-5.15c.32-.5.3-.66.3-.68a2.21 2.21 0 0 0-.37-.27 29.2 29.2 0 0 0-7-3.07 1 1 0 0 1-.68-1.23 1 1 0 0 1 1.24-.69 31.36 31.36 0 0 1 7.51 3.28 2.83 2.83 0 0 1 1.17 1.17 2.73 2.73 0 0 1-.44 2.56 23.71 23.71 0 0 1-4.99 5.61 1 1 0 0 1-.6.23zM69.73 156.4a.86.86 0 0 1-.28 0 1 1 0 0 1-.68-1.24 14.05 14.05 0 0 0 .52-4.74 1 1 0 0 1 2-.12 16 16 0 0 1-.6 5.42 1 1 0 0 1-.96.68z"></path>
      <path class="fill" d="M56.82 160.75a1 1 0 0 1-.43-1.91 34.14 34.14 0 0 0 11.54-9.08 1 1 0 0 1 1.55 1.24 36.09 36.09 0 0 1-12.23 9.63 1.08 1.08 0 0 1-.43.12zM72.18 165.63a1 1 0 0 1-.45-1.9c2.48-1.22 4-3.79 5.58-6.77l2.92-5.47a1 1 0 0 1 1.8.08l1.89 4.43a1 1 0 0 1-1.84.79L81 154.27l-1.93 3.63c-1.35 2.54-3.21 6-6.46 7.62a1 1 0 0 1-.43.11z"></path>
    


  


      
    </svg>